<?xml version="1.0" encoding="UTF-8" standalone="no"?>
<svg
   xmlns:dc="http://purl.org/dc/elements/1.1/"
   xmlns:cc="http://creativecommons.org/ns#"
   xmlns:rdf="http://www.w3.org/1999/02/22-rdf-syntax-ns#"
   xmlns:svg="http://www.w3.org/2000/svg"
   xmlns="http://www.w3.org/2000/svg"
   xmlns:sodipodi="http://sodipodi.sourceforge.net/DTD/sodipodi-0.dtd"
   xmlns:inkscape="http://www.inkscape.org/namespaces/inkscape"
   id="altmask"
   width="230"
   height="790"
   viewBox="0 0 60.854 209.021"
   version="1.1"
   sodipodi:docname="altitude_mask.svg"
   inkscape:version="0.92.4 (5da689c313, 2019-01-14)"
   inkscape:export-filename="/home/bro/dynon-hud/public/img/altitude_mask.png"
   inkscape:export-xdpi="96"
   inkscape:export-ydpi="96">
  <metadata
     id="metadata24">
    <rdf:RDF>
      <cc:Work
         rdf:about="">
        <dc:format>image/svg+xml</dc:format>
        <dc:type
           rdf:resource="http://purl.org/dc/dcmitype/StillImage" />
      </cc:Work>
    </rdf:RDF>
  </metadata>
  <defs
     id="defs22" />
  <sodipodi:namedview
     pagecolor="#ffffff"
     bordercolor="#666666"
     borderopacity="1"
     objecttolerance="10"
     gridtolerance="10"
     guidetolerance="10"
     inkscape:pageopacity="0"
     inkscape:pageshadow="2"
     inkscape:window-width="1920"
     inkscape:window-height="1005"
     id="namedview20"
     showgrid="false"
     inkscape:zoom="1.1949367"
     inkscape:cx="356.37603"
     inkscape:cy="451.90678"
     inkscape:window-x="0"
     inkscape:window-y="0"
     inkscape:window-maximized="1"
     inkscape:current-layer="altmask" />
  <path
     d="M 18.028019,0.15 H -0.339 v 208.871 h 18.367019 z"
     id="path2"
     inkscape:connector-curvature="0"
     style="stroke-width:0.82814413" />
  <path
     d="M 46.66909,0.5928411 H 15.089281 V 74.261841 H 46.66909 Z M 48.682328,121.80484 H 15.468257 v 87.808 h 33.214071 z"
     id="path4"
     inkscape:connector-curvature="0"
     style="stroke-width:1.04205978" />
  <path
     d="M 60.881,0.15 H 45.788533 V 209.021 H 60.881 Z"
     id="path6"
     inkscape:connector-curvature="0"
     style="stroke-width:1.11160672" />
  <path
     d="m 15.035161,99.374 1.538,-0.91 0.819,-0.015 0.818,-0.016 v -1.027 h -1.459 l -1.589,-1.06 c -0.874,-0.584 -1.597,-1.048 -1.607,-1.033 -0.031,0.049 -0.067,2.067 -0.036,2.085 0.047,0.028 0.035,0.873 -0.013,0.898 -0.048,0.025 -0.085,2.004 -0.037,1.994 0.016,-0.003 0.72,-0.415 1.567,-0.916 z"
     id="path13"
     inkscape:connector-curvature="0"
     style="fill:#ff6600" />
</svg>
