<svg id="altmask" xmlns="http://www.w3.org/2000/svg" width="230" height="790" viewBox="0 0 60.854 209.021">
  <path d="M26.442.15H-.339v208.871h26.781z"/>
  <path d="M51.921.15H22.839v73.669h29.082zm1.854 121.212H23.188v87.808h30.587z"/>
  <path d="M60.881.15H48.667v208.871h12.214z"/>
  <path stroke="#f60" stroke-width="1.602" stroke-linejoin="round" d="M21.642 91.565H1.598v12.85h20.044z"/>
  <text style="line-height:1.25;-inkscape-font-specification:'sans-serif, Bold';font-variant-ligatures:normal;font-variant-caps:normal;font-variant-numeric:normal;font-feature-settings:normal;text-align:end" x="23.861" y="86.739" transform="scale(.85673 1.16723)" font-weight="700" font-size="7.582" font-family="sans-serif" letter-spacing="0" word-spacing="0" text-anchor="end" fill="#fff" stroke-width=".433">
    <tspan id="tspanAltitude" x="23.861" y="86.739">0</tspan>
  </text>
  <path d="M24.031 99.374l1.538-.91.819-.015.818-.016v-1.027h-1.459l-1.589-1.06c-.874-.584-1.597-1.048-1.607-1.033-.031.049-.067 2.067-.036 2.085.047.028.035.873-.013.898-.048.025-.085 2.004-.037 1.994.016-.003.72-.415 1.567-.916z" fill="#f60"/>
  <text style="line-height:1.25;-inkscape-font-specification:'sans-serif, Bold';font-variant-ligatures:normal;font-variant-caps:normal;font-variant-numeric:normal;text-align:start" x="6.351" y="110.009" transform="scale(.99977 1.00023)" font-weight="700" font-size="4.587" font-family="sans-serif" letter-spacing="0" word-spacing="0" fill="#fff" stroke-width=".265">
    <tspan x="6.351" y="110.009">MSL</tspan>
  </text>
</svg>