<?xml version="1.0" encoding="UTF-8" standalone="no"?>
<svg
   xmlns:dc="http://purl.org/dc/elements/1.1/"
   xmlns:cc="http://creativecommons.org/ns#"
   xmlns:rdf="http://www.w3.org/1999/02/22-rdf-syntax-ns#"
   xmlns:svg="http://www.w3.org/2000/svg"
   xmlns="http://www.w3.org/2000/svg"
   xmlns:sodipodi="http://sodipodi.sourceforge.net/DTD/sodipodi-0.dtd"
   xmlns:inkscape="http://www.inkscape.org/namespaces/inkscape"
   version="1.1"
   id="Layer_2"
   x="0px"
   y="0px"
   width="310"
   height="310"
   viewBox="0 0 310.00001 310.00001"
   enable-background="new 0 0 400.667 400.666"
   xml:space="preserve"
   sodipodi:docname="horizon_airplane.svg"
   inkscape:version="0.92.4 (5da689c313, 2019-01-14)"><metadata
   id="metadata300"><rdf:RDF><cc:Work
       rdf:about=""><dc:format>image/svg+xml</dc:format><dc:type
         rdf:resource="http://purl.org/dc/dcmitype/StillImage" /><dc:title /></cc:Work></rdf:RDF></metadata><defs
   id="defs298" /><sodipodi:namedview
   pagecolor="#ffffff"
   bordercolor="#666666"
   borderopacity="1"
   objecttolerance="10"
   gridtolerance="10"
   guidetolerance="10"
   inkscape:pageopacity="0"
   inkscape:pageshadow="2"
   inkscape:window-width="1920"
   inkscape:window-height="1005"
   id="namedview296"
   showgrid="false"
   inkscape:zoom="2.3617878"
   inkscape:cx="147.55329"
   inkscape:cy="238.91414"
   inkscape:window-x="0"
   inkscape:window-y="0"
   inkscape:window-maximized="1"
   inkscape:current-layer="Layer_2" />
<filter
   filterUnits="objectBoundingBox"
   id="AI_Shadow_1">
	<feGaussianBlur
   stdDeviation="5"
   result="blur"
   in="SourceAlpha"
   id="feGaussianBlur258" />
	<feOffset
   dy="0"
   dx="0"
   result="offsetBlurredAlpha"
   in="blur"
   id="feOffset260" />
	<feMerge
   id="feMerge266">
		<feMergeNode
   in="offsetBlurredAlpha"
   id="feMergeNode262" />
		<feMergeNode
   in="SourceGraphic"
   id="feMergeNode264" />
	</feMerge>
</filter>











<line
   stroke-miterlimit="10"
   x1="93.009003"
   y1="155.57022"
   x2="129.03712"
   y2="155.57022"
   id="line269"
   style="display:inline;fill:#ffff00;fill-opacity:1;stroke:#ffff00;stroke-width:4.42498636;stroke-linecap:round;stroke-miterlimit:10;stroke-opacity:1" /><line
   stroke-miterlimit="10"
   x1="180.41937"
   y1="155.57022"
   x2="216.04332"
   y2="155.57022"
   id="line271"
   style="display:inline;fill:#ffff00;fill-opacity:1;stroke:#ffff00;stroke-width:4.40009689;stroke-linecap:round;stroke-miterlimit:10;stroke-opacity:1" /><line
   stroke-miterlimit="10"
   x1="154.53429"
   y1="155.79102"
   x2="154.53429"
   y2="155.79102"
   id="line273"
   style="display:inline;fill:#ffff00;fill-opacity:1;stroke:#ffff00;stroke-width:5;stroke-linecap:round;stroke-miterlimit:10;stroke-opacity:1" /><rect
   style="display:inline;fill:#ffff00;fill-opacity:1"
   id="rect318"
   width="3.6447031"
   height="15.081531"
   x="129.07172"
   y="153.2791" /><rect
   style="display:inline;fill:#ffff00;fill-opacity:1"
   id="rect318-3"
   width="3.6447031"
   height="15.081531"
   x="176.5157"
   y="153.2791" /><path
   style="display:inline;fill:#ffff00;fill-opacity:1;stroke:#ffff00;stroke-width:1.0375843;stroke-linecap:square;stroke-linejoin:miter;stroke-miterlimit:4;stroke-dasharray:none;stroke-opacity:1;paint-order:markers fill stroke"
   d="m 152.70462,158.57333 c -2.91462,-1.64481 -2.78244,-5.75411 0.23072,-7.17225 2.41977,-1.13887 5.1077,-0.28354 6.23989,1.98561 0.98661,1.97738 -0.0426,4.40425 -2.28157,5.37976 -1.1226,0.48913 -3.14534,0.39588 -4.18904,-0.19312 z"
   id="path35"
   inkscape:connector-curvature="0" /><path
   style="fill:#ffff00;fill-opacity:1;stroke:none;stroke-width:0;stroke-linecap:square;stroke-linejoin:miter;stroke-miterlimit:10;stroke-dasharray:none;stroke-opacity:1;paint-order:markers fill stroke"
   d="m 147.37036,79.35342 c 0.34042,-0.780268 2.05861,-4.754834 3.8182,-8.832368 1.75961,-4.077534 3.26324,-7.473115 3.34143,-7.545735 0.10961,-0.101799 3.36857,7.25092 7.78671,17.567956 0.0772,0.180354 -1.56077,0.228818 -7.73364,0.228818 h -7.83164 z"
   id="path842"
   inkscape:connector-curvature="0" /><path
   style="opacity:1;fill:#ffff00;fill-opacity:1;stroke:none;stroke-width:0.68803811;stroke-miterlimit:10;stroke-dasharray:none;stroke-opacity:1"
   d="m 146.80139,80.746152 c 0,-0.01856 0.34795,-0.83739 0.77322,-1.819621 0.42526,-0.982231 1.57114,-3.631669 2.5464,-5.88764 2.95549,-6.836711 4.28672,-9.8504 4.40218,-9.96586 0.0572,-0.05724 0.39355,0.623796 1.31458,2.66207 2.11671,4.684354 6.48651,14.803416 6.41245,14.849185 -0.16345,0.101017 -1.99648,0.137216 -8.34351,0.164769 -3.90792,0.01696 -7.10532,0.01566 -7.10532,-0.0029 z"
   id="path19"
   inkscape:connector-curvature="0" /><path
   style="opacity:1;fill:#ffff00;fill-opacity:1;stroke:none;stroke-width:3.89213133;stroke-miterlimit:10;stroke-dasharray:none;stroke-opacity:1"
   d="m 176.65627,160.83836 v -7.48487 h 19.59086 c 19.39557,0 20.90403,0.0696 21.49039,0.99176 0.41933,0.65949 0.24249,2.2022 -0.30973,2.70195 -0.49159,0.44488 -2.34602,0.50073 -18.93672,0.57034 l -18.39176,0.0772 -0.0818,5.31426 -0.0818,5.31426 h -1.63976 -1.63976 z"
   id="path20"
   inkscape:connector-curvature="0" /><path
   style="opacity:1;fill:#ffff00;fill-opacity:1;stroke:none;stroke-width:3.89213133;stroke-miterlimit:10;stroke-dasharray:none;stroke-opacity:1"
   d="m 129.05251,162.93412 v -5.3891 h -18.51607 c -17.557842,0 -18.541715,-0.0283 -19.011567,-0.54752 -0.772532,-0.85364 -0.63267,-2.29507 0.293368,-3.02349 0.780207,-0.61371 1.008521,-0.62052 20.807929,-0.62052 h 20.01907 v 7.48487 7.48487 h -1.79636 -1.79637 z"
   id="path22"
   inkscape:connector-curvature="0" /><path
   style="opacity:1;fill:#ffff00;fill-opacity:1;stroke:none;stroke-width:3.89213133;stroke-miterlimit:10;stroke-dasharray:none;stroke-opacity:1"
   d="m 152.28704,158.76604 c -1.49179,-0.98346 -2.06873,-2.21275 -1.91402,-4.07829 0.21543,-2.59781 1.91721,-4.02972 4.78681,-4.02769 4.73596,0.003 6.5305,5.66481 2.56246,8.08415 -1.32621,0.8086 -4.22416,0.82024 -5.43525,0.0218 z"
   id="path24"
   inkscape:connector-curvature="0" /><path
   style="opacity:1;fill:#ffff00;fill-opacity:1;stroke:none;stroke-width:3.89213133;stroke-miterlimit:10;stroke-dasharray:none;stroke-opacity:1"
   d="m 129.11238,162.95081 v -5.37241 l -18.58677,-0.0915 c -17.997534,-0.0886 -18.600248,-0.10996 -19.011569,-0.6727 -1.096405,-1.50003 -0.236407,-2.86961 2.001501,-3.18748 0.888547,-0.12621 10.069698,-0.23931 20.402558,-0.25133 l 18.78702,-0.0219 v 7.48487 7.48487 h -1.79637 -1.79637 z"
   id="path831"
   inkscape:connector-curvature="0" /><path
   style="opacity:1;fill:#ffff00;fill-opacity:1;stroke:none;stroke-width:3.89213133;stroke-miterlimit:10;stroke-dasharray:none;stroke-opacity:1"
   d="m 152.59215,158.79076 c -3.36838,-1.57613 -2.77489,-6.87756 0.88011,-7.86175 3.83045,-1.03144 7.18244,1.94913 6.13263,5.45309 -0.73411,2.45023 -4.30368,3.67628 -7.01274,2.40866 z"
   id="path833"
   inkscape:connector-curvature="0" /><path
   style="opacity:1;fill:#ffff00;fill-opacity:1;stroke:none;stroke-width:3.89213133;stroke-miterlimit:10;stroke-dasharray:none;stroke-opacity:1"
   d="m 176.71614,160.83836 v -7.48487 l 17.88884,0.0161 c 9.83886,0.009 18.9571,0.12808 20.26276,0.26488 2.63033,0.2756 3.33656,0.77183 3.00883,2.11414 -0.41973,1.71905 0.49926,1.63391 -19.38992,1.79637 l -18.32747,0.14969 -0.0818,5.31426 -0.0817,5.31426 h -1.63977 -1.63976 z"
   id="path835"
   inkscape:connector-curvature="0" /><path
   style="fill:#ffff00;stroke:#ffff00;stroke-width:1px;stroke-linecap:butt;stroke-linejoin:miter;stroke-opacity:1"
   d="M 129.11238,168.32323 C 93.009003,155.57022 93.009003,155.57022 93.009003,155.57022"
   id="path849"
   inkscape:connector-curvature="0" /><path
   style="fill:#ffff00;stroke:#ffff00;stroke-width:1px;stroke-linecap:butt;stroke-linejoin:miter;stroke-opacity:1"
   d="m 129.11238,168.32323 c 3.53286,0 3.53286,0 3.53286,0"
   id="path851"
   inkscape:connector-curvature="0" /><path
   style="opacity:1;fill:#ffff00;fill-opacity:1;stroke:#ffff00;stroke-width:1.94606566;stroke-miterlimit:10;stroke-dasharray:none;stroke-opacity:1"
   d="m 115.08133,162.7754 -13.82782,-4.88608 13.81456,-0.0382 c 7.59801,-0.021 13.8383,-0.0145 13.86732,0.0145 0.029,0.029 0.035,2.24495 0.0133,4.92429 l -0.0395,4.87154 z"
   id="path853"
   inkscape:connector-curvature="0" /><path
   style="fill:#ffff00;stroke:#ffff00;stroke-width:1px;stroke-linecap:butt;stroke-linejoin:miter;stroke-opacity:0"
   d="m 216.04332,155.57022 c 0,0 0,0 -36.04764,12.75297 -3.27953,0 -3.27953,0 -3.27953,0"
   id="path855"
   inkscape:connector-curvature="0" /><path
   style="opacity:1;fill:#ffff00;fill-opacity:1;stroke:#ffffff;stroke-width:1.94606566;stroke-miterlimit:10;stroke-dasharray:none;stroke-opacity:0"
   d="m 180.18049,162.75239 v -4.93792 l 13.88443,0.0118 c 7.63644,0.006 13.78339,0.0504 13.65989,0.0975 -0.1235,0.0471 -6.01784,2.13319 -13.09852,4.63567 -7.08069,2.50247 -13.22763,4.68064 -13.65988,4.84038 l -0.78592,0.29043 z"
   id="path857"
   inkscape:connector-curvature="0" /><path
   style="opacity:1;fill:#ffff00;fill-opacity:1;stroke:#ffff00;stroke-width:0.34401906;stroke-miterlimit:10;stroke-dasharray:none;stroke-opacity:0"
   d="m 197.97995,161.38726 c 0.0728,-0.0264 1.57918,-0.56016 3.34757,-1.18613 6.18143,-2.18809 6.40203,-2.26738 6.36516,-2.28802 -0.0885,-0.0495 -4.80921,-0.0768 -15.73968,-0.0911 -6.47318,-0.008 -11.76942,-0.0227 -11.76942,-0.0317 0,-0.0149 17.32926,-0.0125 25.55758,0.004 l 3.39481,0.007 -5.6177,1.82033 c -4.8867,1.58345 -6.10516,1.97208 -5.53832,1.76648 z"
   id="path869"
   inkscape:connector-curvature="0" /><path
   style="fill:none;stroke:#000000;stroke-width:0.4;stroke-linecap:butt;stroke-linejoin:miter;stroke-opacity:1;stroke-miterlimit:4;stroke-dasharray:none"
   d="m 97.902073,155.28778 c 31.135047,0.28244 31.135047,0.28244 31.135047,0.28244 v 0 0"
   id="path843"
   inkscape:connector-curvature="0" /><path
   style="fill:none;stroke:#000000;stroke-width:0.4;stroke-linecap:butt;stroke-linejoin:miter;stroke-opacity:1;stroke-miterlimit:4;stroke-dasharray:none"
   d="m 97.902073,155.28778 c 31.286747,10.25427 31.286747,10.25427 31.286747,10.25427"
   id="path845"
   inkscape:connector-curvature="0" /><path
   style="fill:#ffcc00;stroke:#000000;stroke-width:0.4;stroke-linecap:butt;stroke-linejoin:miter;stroke-opacity:1;stroke-miterlimit:4;stroke-dasharray:none"
   d="m 129.03712,155.57022 c 0.1517,9.97183 0.1517,9.97183 0.1517,9.97183"
   id="path847"
   inkscape:connector-curvature="0" /><path
   style="opacity:1;fill:#ffdd55;fill-opacity:1;stroke:#ffff00;stroke-width:0.02993947;stroke-miterlimit:4;stroke-dasharray:none;stroke-opacity:0"
   d="m 114.08181,160.34837 c -8.05584,-2.64237 -14.640655,-4.80762 -14.632913,-4.81167 0.03535,-0.0185 29.346823,0.27003 29.363093,0.28902 0.007,0.008 0.0371,2.11123 0.0673,4.67387 0.0462,3.92592 0.0387,4.65883 -0.0478,4.6562 -0.0565,-0.002 -6.69384,-2.16506 -14.74969,-4.80742 z"
   id="path850"
   inkscape:connector-curvature="0" /><path
   style="fill:none;stroke:#000000;stroke-width:0.4;stroke-linecap:butt;stroke-linejoin:miter;stroke-opacity:1;stroke-miterlimit:4;stroke-dasharray:none"
   d="m 180.46017,165.1678 c 0,0 0,0 -0.0408,-9.59758 29.08209,-0.28244 29.08209,-0.28244 29.08209,-0.28244"
   id="path856"
   inkscape:connector-curvature="0" /><path
   style="fill:#ffdd55;stroke:#000000;stroke-width:0.4;stroke-linecap:butt;stroke-linejoin:miter;stroke-opacity:1;stroke-miterlimit:4;stroke-dasharray:none;fill-opacity:1"
   d="m 180.46017,165.1678 c 29.04129,-9.88002 29.04129,-9.88002 29.04129,-9.88002"
   id="path858"
   inkscape:connector-curvature="0" /><path
   style="opacity:1;fill:#ffdd55;fill-opacity:1;stroke:#ffff00;stroke-width:0.02993947;stroke-miterlimit:4;stroke-dasharray:none;stroke-opacity:0"
   d="m 180.67056,161.33732 v -3.51792 l 8.47661,0.003 c 4.66214,0.002 9.24485,0.0248 10.18381,0.0513 l 1.7072,0.0482 -8.33131,2.83234 c -4.58221,1.55779 -9.16493,3.11779 -10.18381,3.46667 l -1.8525,0.63433 z"
   id="path860"
   inkscape:connector-curvature="0" /><path
   style="opacity:1;fill:#ffdd55;fill-opacity:1;stroke:#ffff00;stroke-width:0.02993947;stroke-miterlimit:4;stroke-dasharray:none;stroke-opacity:0"
   d="m 180.67056,156.78615 v -0.96274 l 3.5366,-0.0482 c 1.94513,-0.0265 7.57843,-0.0818 12.51844,-0.12295 4.94001,-0.0411 9.51598,-0.0858 10.16882,-0.0993 l 1.18699,-0.0245 -3.27408,1.11018 -3.27408,1.11019 h -10.43134 -10.43135 z"
   id="path862"
   inkscape:connector-curvature="0" /><path
   style="opacity:1;fill:#000255;fill-opacity:0.00784314;stroke:#ffff00;stroke-width:0.0052926;stroke-miterlimit:4;stroke-dasharray:none;stroke-opacity:0"
   d="m 200.10577,157.89208 c -0.41481,-0.0129 -1.18587,-0.0284 -1.71348,-0.0344 l -0.95928,-0.0109 1.33638,-0.007 c 1.30175,-0.007 1.28204,-0.007 -0.76081,-0.0102 -4.53653,-0.007 -15.61935,-0.0298 -16.06305,-0.0329 -0.25834,-0.002 3.92298,-0.005 9.29183,-0.006 9.72234,-0.003 9.76154,-0.003 9.76154,0.0231 0,0.0252 -0.0111,0.0263 -0.2944,0.03 l -0.29441,0.004 0.29441,0.003 0.2944,0.003 v 0.0331 c 0,0.0313 -0.004,0.033 -0.0695,0.0311 -0.0382,-0.001 -0.40885,-0.0125 -0.82366,-0.0255 z"
   id="path864"
   inkscape:connector-curvature="0" /><path
   style="opacity:1;fill:#000255;fill-opacity:0.00784314;stroke:#ffff00;stroke-width:0.0052926;stroke-miterlimit:4;stroke-dasharray:none;stroke-opacity:0"
   d="m 200.10577,157.89208 c -0.41481,-0.0129 -1.18587,-0.0284 -1.71348,-0.0344 l -0.95928,-0.0109 1.34961,-0.007 c 0.79028,-0.004 -1.08513,-0.0111 -4.52517,-0.0175 -3.23114,-0.006 -7.42883,-0.0154 -9.32821,-0.021 -2.78332,-0.008 -1.55928,-0.0105 6.30812,-0.0122 9.72203,-0.002 9.76154,-0.002 9.76154,0.024 0,0.0252 -0.0111,0.0263 -0.2944,0.03 l -0.29441,0.004 0.29441,0.003 0.2944,0.003 v 0.0331 c 0,0.0313 -0.004,0.033 -0.0695,0.0311 -0.0382,-0.001 -0.40885,-0.0125 -0.82366,-0.0255 z"
   id="path866"
   inkscape:connector-curvature="0" /><path
   style="opacity:1;fill:#000255;fill-opacity:0.00784314;stroke:#ffff00;stroke-width:0.0052926;stroke-miterlimit:4;stroke-dasharray:none;stroke-opacity:0"
   d="m 200.10577,157.89208 c -0.41481,-0.0129 -1.18587,-0.0284 -1.71348,-0.0344 l -0.95928,-0.0109 1.34961,-0.007 c 0.79111,-0.004 -1.07605,-0.0111 -4.51194,-0.0175 -3.22386,-0.006 -7.42155,-0.0154 -9.32821,-0.021 -2.80152,-0.008 -1.59373,-0.0105 6.29489,-0.0123 9.72203,-0.002 9.76154,-0.002 9.76154,0.024 0,0.0252 -0.0111,0.0263 -0.2944,0.03 l -0.29441,0.004 0.29441,0.003 0.2944,0.003 v 0.0331 c 0,0.0313 -0.004,0.033 -0.0695,0.0311 -0.0382,-0.001 -0.40885,-0.0125 -0.82366,-0.0255 z"
   id="path868"
   inkscape:connector-curvature="0" /><path
   style="opacity:1;fill:#000255;fill-opacity:0.00784314;stroke:#ffff00;stroke-width:0.0052926;stroke-miterlimit:4;stroke-dasharray:none;stroke-opacity:0"
   d="m 200.10577,157.89208 c -0.41481,-0.0129 -1.18587,-0.0284 -1.71348,-0.0344 l -0.95928,-0.0109 1.34961,-0.007 c 0.79111,-0.004 -1.07605,-0.0111 -4.51194,-0.0175 -3.22386,-0.006 -7.42155,-0.0154 -9.32821,-0.021 -2.80152,-0.008 -1.59373,-0.0105 6.29489,-0.0123 9.72203,-0.002 9.76154,-0.002 9.76154,0.024 0,0.0252 -0.0111,0.0263 -0.2944,0.03 l -0.29441,0.004 0.29441,0.003 0.2944,0.003 v 0.0331 c 0,0.0313 -0.004,0.033 -0.0695,0.0311 -0.0382,-0.001 -0.40885,-0.0125 -0.82366,-0.0255 z"
   id="path870"
   inkscape:connector-curvature="0" /><path
   style="opacity:1;fill:#000255;fill-opacity:0.00784314;stroke:#ffff00;stroke-width:0.0052926;stroke-miterlimit:4;stroke-dasharray:none;stroke-opacity:0"
   d="m 183.92133,157.81661 c -0.0144,-0.009 7.8613,-0.007 7.9346,0.002 0.0182,0.002 -1.75615,0.005 -3.94299,0.006 -2.18684,9.8e-4 -3.98306,-0.003 -3.99161,-0.008 z"
   id="path872"
   inkscape:connector-curvature="0" /><path
   style="opacity:1;fill:#000255;fill-opacity:0.00784314;stroke:#ffff00;stroke-width:0.0052926;stroke-miterlimit:4;stroke-dasharray:none;stroke-opacity:0"
   d="m 183.9216,157.81678 c -0.0142,-0.009 7.81819,-0.007 7.9211,0.002 0.0255,0.002 -1.74292,0.005 -3.92976,0.006 -2.18684,0.001 -3.98294,-0.002 -3.99134,-0.008 z"
   id="path874"
   inkscape:connector-curvature="0" /><path
   style="opacity:1;fill:#000255;fill-opacity:0.00784314;stroke:#ffff00;stroke-width:0.0052926;stroke-miterlimit:4;stroke-dasharray:none;stroke-opacity:0"
   d="m 200.10577,157.89208 c -0.41481,-0.0129 -1.18587,-0.0284 -1.71348,-0.0344 l -0.95928,-0.0109 1.34299,-0.007 c 0.78344,-0.004 -1.09371,-0.0111 -4.50532,-0.0174 -3.21658,-0.006 -7.35473,-0.0154 -9.1959,-0.021 -2.6965,-0.008 -1.4735,-0.0106 6.28827,-0.0123 9.59674,-0.002 9.63585,-0.002 9.63585,0.024 0,0.0252 -0.0111,0.0263 -0.2944,0.03 l -0.29441,0.004 0.29441,0.003 0.2944,0.003 v 0.0331 c 0,0.0313 -0.004,0.033 -0.0695,0.0311 -0.0382,-0.001 -0.40885,-0.0125 -0.82366,-0.0255 z"
   id="path876"
   inkscape:connector-curvature="0" /><path
   style="opacity:1;fill:#000255;fill-opacity:0.00784314;stroke:#ffff00;stroke-width:0.0052926;stroke-miterlimit:4;stroke-dasharray:none;stroke-opacity:0"
   d="m 200.10577,157.8922 c -0.41481,-0.0129 -1.16206,-0.0284 -1.66055,-0.0344 l -0.90636,-0.011 1.29007,-0.007 c 0.73061,-0.004 -1.24616,-0.0113 -4.55825,-0.0174 -3.21658,-0.006 -7.35473,-0.0154 -9.1959,-0.021 -2.6965,-0.008 -1.4735,-0.0106 6.28827,-0.0123 9.59674,-0.002 9.63585,-0.002 9.63585,0.024 0,0.0252 -0.0111,0.0263 -0.2944,0.03 l -0.29441,0.004 0.29441,0.003 0.2944,0.003 v 0.0331 c 0,0.0313 -0.004,0.033 -0.0695,0.0311 -0.0382,-0.001 -0.40885,-0.0125 -0.82366,-0.0254 z"
   id="path878"
   inkscape:connector-curvature="0" /><path
   style="opacity:1;fill:#000255;fill-opacity:0.00784314;stroke:#ffcc00;stroke-width:0.0052926;stroke-miterlimit:4;stroke-dasharray:none;stroke-opacity:1"
   d="m 200.10577,157.89228 c -0.41481,-0.0128 -1.14717,-0.0283 -1.62748,-0.0344 l -0.87327,-0.0111 1.25699,-0.007 c 0.69816,-0.004 -1.34302,-0.0114 -4.59133,-0.0174 -3.21658,-0.006 -7.35176,-0.0154 -9.18928,-0.021 -2.69052,-0.008 -1.46628,-0.0106 6.28827,-0.0124 9.59014,-0.002 9.62923,-0.002 9.62923,0.024 0,0.0252 -0.0111,0.0263 -0.2944,0.03 l -0.29441,0.004 0.29441,0.003 0.2944,0.003 v 0.0331 c 0,0.0313 -0.004,0.033 -0.0695,0.0311 -0.0382,-0.001 -0.40885,-0.0125 -0.82366,-0.0253 z"
   id="path880"
   inkscape:connector-curvature="0" /><path
   style="fill:none;stroke:#000000;stroke-width:0.4;stroke-linecap:butt;stroke-linejoin:miter;stroke-opacity:1;stroke-miterlimit:4;stroke-dasharray:none"
   d="m 149.47281,79.204095 c 10.02973,-0.112273 10.02973,-0.112273 10.02973,-0.112273"
   id="path888"
   inkscape:connector-curvature="0" /><path
   style="fill:#ffdd55;stroke:#000000;stroke-width:0.4;stroke-linecap:butt;stroke-linejoin:miter;stroke-opacity:1;stroke-miterlimit:4;stroke-dasharray:none;fill-opacity:1"
   d="m 149.47281,79.204095 c 5.12714,-12.050637 5.12714,-12.050637 5.12714,-12.050637 4.90259,11.938364 4.90259,11.938364 4.90259,11.938364"
   id="path890"
   inkscape:connector-curvature="0" /><path
   style="opacity:1;fill:#ffdd55;fill-opacity:1;stroke:#ffcc00;stroke-width:0.16936323;stroke-miterlimit:4;stroke-dasharray:none;stroke-opacity:1"
   d="m 151.20019,76.103597 c 2.29168,-5.391113 3.24677,-7.473507 3.42775,-7.473507 0.24634,0 4.22233,9.765529 4.03962,9.92183 -0.0814,0.06964 -2.08444,0.228492 -4.4512,0.353007 l -4.3032,0.226392 z"
   id="path892"
   inkscape:connector-curvature="0" /></svg>