<?xml version="1.0" encoding="UTF-8" standalone="no"?>
<svg
   xmlns:dc="http://purl.org/dc/elements/1.1/"
   xmlns:cc="http://creativecommons.org/ns#"
   xmlns:rdf="http://www.w3.org/1999/02/22-rdf-syntax-ns#"
   xmlns:svg="http://www.w3.org/2000/svg"
   xmlns="http://www.w3.org/2000/svg"
   xmlns:sodipodi="http://sodipodi.sourceforge.net/DTD/sodipodi-0.dtd"
   xmlns:inkscape="http://www.inkscape.org/namespaces/inkscape"
   id="speedmask"
   width="187.388"
   height="600"
   viewBox="0 0 49.58 158.75"
   version="1.1"
   sodipodi:docname="speed_mask.svg"
   inkscape:version="0.92.4 (5da689c313, 2019-01-14)"
   inkscape:export-filename="/home/bro/dynon-hud/public/img/speed_mask.png"
   inkscape:export-xdpi="96"
   inkscape:export-ydpi="96">
  <metadata
     id="metadata27">
    <rdf:RDF>
      <cc:Work
         rdf:about="">
        <dc:format>image/svg+xml</dc:format>
        <dc:type
           rdf:resource="http://purl.org/dc/dcmitype/StillImage" />
      </cc:Work>
    </rdf:RDF>
  </metadata>
  <defs
     id="defs25" />
  <sodipodi:namedview
     pagecolor="#ffffff"
     bordercolor="#666666"
     borderopacity="1"
     objecttolerance="10"
     gridtolerance="10"
     guidetolerance="10"
     inkscape:pageopacity="0"
     inkscape:pageshadow="2"
     inkscape:window-width="1920"
     inkscape:window-height="1005"
     id="namedview23"
     showgrid="false"
     inkscape:zoom="3.1466667"
     inkscape:cx="27.247378"
     inkscape:cy="309.07496"
     inkscape:window-x="0"
     inkscape:window-y="0"
     inkscape:window-maximized="1"
     inkscape:current-layer="speedmask" />
  <path
     d="m 25.207,-0.019 h 24.541169 v 158.75 H 25.207 Z"
     id="path2"
     inkscape:connector-curvature="0"
     style="stroke-width:1.00344396"
     inkscape:export-xdpi="96"
     inkscape:export-ydpi="96" />
  <path
     d="M2.49 93.801h27.427v64.949H2.49z"
     id="path4" />
  <path
     d="M0 0h4.6v158.75H0z"
     id="path6" />
  <path
     d="M2.309 0h26.925v45.979H2.309z"
     id="path8" />
  <path
     d="M30.024 75.436c-.07-.23-.127-.996-.127-1.701v-1.283l-1.49-1.075c-1.421-1.024-1.533-1.075-2.342-1.075h-.85v-1.143H26c.757 0 .837-.044 2.34-1.266l1.557-1.266v-1.418c0-.78.058-1.608.128-1.838l.127-.419h17.944l.154.363c.116.273.132 1.84.064 6.316-.05 3.274-.121 6.014-.158 6.088-.037.075-4.103.136-9.035.136h-8.97zm17.17-6.032v-5.145H31.067v10.289h16.125z"
     fill="#f60"
     paint-order="fill markers stroke"
     id="path10" />
  <path
     stroke="#f60"
     stroke-width="1.852"
     stroke-linejoin="round"
     paint-order="fill markers stroke"
     d="M29.855 62.952h18.543v13.035H29.855z"
     id="path16" />
  <text
     style="font-style:normal;font-variant:normal;font-weight:bold;font-stretch:normal;font-size:8.81949033px;line-height:1.25;font-family:MonacoB2;-inkscape-font-specification:'MonacoB2, Bold';font-variant-ligatures:normal;font-variant-caps:normal;font-variant-numeric:normal;font-feature-settings:normal;text-align:center;letter-spacing:0;word-spacing:0;writing-mode:lr;text-anchor:middle;fill:#ffffff;stroke-width:0.40267476;"
     x="40.086475"
     y="71.590408"
     transform="scale(0.97845406,1.0220204)"
     font-weight="700"
     font-size="8.122"
     letter-spacing="0"
     word-spacing="0"
     id="text20">
    <tspan
       if="tspanSpeed"
       x="40.086475"
       y="71.590408"
       style="font-style:normal;font-variant:normal;font-weight:bold;font-stretch:normal;font-size:8.81949033px;font-family:MonacoB2;-inkscape-font-specification:'MonacoB2, Bold';font-variant-ligatures:normal;font-variant-caps:normal;font-variant-numeric:normal;font-feature-settings:normal;text-align:center;writing-mode:lr;text-anchor:middle;stroke-width:0.40267476;"
       id="tspan18">000</tspan>
  </text>
  <rect
     style="opacity:1;fill:#000000;fill-opacity:1;stroke:none;stroke-width:3.43960118;stroke-miterlimit:10;stroke-dasharray:none;stroke-opacity:1"
     id="rect821"
     width="20.684694"
     height="16.228235"
     x="28.756769"
     y="60.792408" />
</svg>
