<svg id="SvgjsSvg1006" width="100%" height="100%" xmlns="http://www.w3.org/2000/svg" version="1.1" xmlns:xlink="http://www.w3.org/1999/xlink" xmlns:svgjs="http://svgjs.com/svgjs" viewBox="-200 -200 400 400"><defs id="SvgjsDefs1007"><clipPath id="SvgjsClipPath1014"><rect id="SvgjsRect1011" width="400" height="400" x="-200" y="-200"></rect></clipPath><clipPath id="SvgjsClipPath1020"><rect id="SvgjsRect1010" width="2400" height="1200" x="-1200" y="0"></rect></clipPath><clipPath id="SvgjsClipPath1022"><circle id="SvgjsCircle1012" r="160" cx="0" cy="0" transform="matrix(1,0,0,1,0,0)"></circle></clipPath><clipPath id="SvgjsClipPath1147"><polygon id="SvgjsPolygon1013" points="0,0 -200,-200 200,-200" transform="matrix(1,0,0,1,0,0)"></polygon></clipPath></defs><g id="SvgjsG1008"><g id="SvgjsG1009" class="ai" clip-path="url(&quot;#SvgjsClipPath1014&quot;)"><g id="SvgjsG1015"><g id="SvgjsG1016" transform="matrix(1,0,0,1,0,0)"><circle id="SvgjsCircle1017" r="1200" cx="0" cy="0" class="sky"></circle><line id="SvgjsLine1018" x1="-1200" y1="0" x2="1200" y2="0" class="marks"></line><circle id="SvgjsCircle1019" r="1200" cx="0" cy="0" class="earth" clip-path="url(&quot;#SvgjsClipPath1020&quot;)"></circle><g id="SvgjsG1021" class="marks" clip-path="url(&quot;#SvgjsClipPath1022&quot;)"><line id="SvgjsLine1023" x1="-15" y1="-525" x2="15" y2="-525"></line><line id="SvgjsLine1024" x1="-30" y1="-500" x2="30" y2="-500"></line><text id="SvgjsText1025" font-family="Helvetica, Arial, sans-serif" x="-55" y="-516.09375" class="markText"><tspan id="SvgjsTspan1026" dy="20.8" x="-55">80</tspan></text><text id="SvgjsText1027" font-family="Helvetica, Arial, sans-serif" x="55" y="-516.09375" class="markText"><tspan id="SvgjsTspan1028" dy="20.8" x="55">80</tspan></text><line id="SvgjsLine1029" x1="-15" y1="-475" x2="15" y2="-475"></line><line id="SvgjsLine1030" x1="-30" y1="-450" x2="30" y2="-450"></line><text id="SvgjsText1031" font-family="Helvetica, Arial, sans-serif" x="-55" y="-466.09375" class="markText"><tspan id="SvgjsTspan1032" dy="20.8" x="-55">90</tspan></text><text id="SvgjsText1033" font-family="Helvetica, Arial, sans-serif" x="55" y="-466.09375" class="markText"><tspan id="SvgjsTspan1034" dy="20.8" x="55">90</tspan></text><line id="SvgjsLine1035" x1="-15" y1="-425" x2="15" y2="-425"></line><line id="SvgjsLine1036" x1="-30" y1="-400" x2="30" y2="-400"></line><text id="SvgjsText1037" font-family="Helvetica, Arial, sans-serif" x="-55" y="-416.09375" class="markText"><tspan id="SvgjsTspan1038" dy="20.8" x="-55">80</tspan></text><text id="SvgjsText1039" font-family="Helvetica, Arial, sans-serif" x="55" y="-416.09375" class="markText"><tspan id="SvgjsTspan1040" dy="20.8" x="55">80</tspan></text><line id="SvgjsLine1041" x1="-15" y1="-375" x2="15" y2="-375"></line><line id="SvgjsLine1042" x1="-30" y1="-350" x2="30" y2="-350"></line><text id="SvgjsText1043" font-family="Helvetica, Arial, sans-serif" x="-55" y="-366.09375" class="markText"><tspan id="SvgjsTspan1044" dy="20.8" x="-55">70</tspan></text><text id="SvgjsText1045" font-family="Helvetica, Arial, sans-serif" x="55" y="-366.09375" class="markText"><tspan id="SvgjsTspan1046" dy="20.8" x="55">70</tspan></text><line id="SvgjsLine1047" x1="-15" y1="-325" x2="15" y2="-325"></line><line id="SvgjsLine1048" x1="-30" y1="-300" x2="30" y2="-300"></line><text id="SvgjsText1049" font-family="Helvetica, Arial, sans-serif" x="-55" y="-316.09375" class="markText"><tspan id="SvgjsTspan1050" dy="20.8" x="-55">60</tspan></text><text id="SvgjsText1051" font-family="Helvetica, Arial, sans-serif" x="55" y="-316.09375" class="markText"><tspan id="SvgjsTspan1052" dy="20.8" x="55">60</tspan></text><line id="SvgjsLine1053" x1="-15" y1="-275" x2="15" y2="-275"></line><line id="SvgjsLine1054" x1="-30" y1="-250" x2="30" y2="-250"></line><text id="SvgjsText1055" font-family="Helvetica, Arial, sans-serif" x="-55" y="-266.09375" class="markText"><tspan id="SvgjsTspan1056" dy="20.8" x="-55">50</tspan></text><text id="SvgjsText1057" font-family="Helvetica, Arial, sans-serif" x="55" y="-266.09375" class="markText"><tspan id="SvgjsTspan1058" dy="20.8" x="55">50</tspan></text><line id="SvgjsLine1059" x1="-15" y1="-225" x2="15" y2="-225"></line><line id="SvgjsLine1060" x1="-30" y1="-200" x2="30" y2="-200"></line><text id="SvgjsText1061" font-family="Helvetica, Arial, sans-serif" x="-55" y="-216.09375" class="markText"><tspan id="SvgjsTspan1062" dy="20.8" x="-55">40</tspan></text><text id="SvgjsText1063" font-family="Helvetica, Arial, sans-serif" x="55" y="-216.09375" class="markText"><tspan id="SvgjsTspan1064" dy="20.8" x="55">40</tspan></text><line id="SvgjsLine1065" x1="-15" y1="-175" x2="15" y2="-175"></line><line id="SvgjsLine1066" x1="-30" y1="-150" x2="30" y2="-150"></line><text id="SvgjsText1067" font-family="Helvetica, Arial, sans-serif" x="-55" y="-166.09375" class="markText"><tspan id="SvgjsTspan1068" dy="20.8" x="-55">30</tspan></text><text id="SvgjsText1069" font-family="Helvetica, Arial, sans-serif" x="55" y="-166.09375" class="markText"><tspan id="SvgjsTspan1070" dy="20.8" x="55">30</tspan></text><line id="SvgjsLine1071" x1="-15" y1="-125" x2="15" y2="-125"></line><line id="SvgjsLine1072" x1="-30" y1="-100" x2="30" y2="-100"></line><text id="SvgjsText1073" font-family="Helvetica, Arial, sans-serif" x="-55" y="-116.09375" class="markText"><tspan id="SvgjsTspan1074" dy="20.8" x="-55">20</tspan></text><text id="SvgjsText1075" font-family="Helvetica, Arial, sans-serif" x="55" y="-116.09375" class="markText"><tspan id="SvgjsTspan1076" dy="20.8" x="55">20</tspan></text><line id="SvgjsLine1077" x1="-15" y1="-75" x2="15" y2="-75"></line><line id="SvgjsLine1078" x1="-30" y1="-50" x2="30" y2="-50"></line><text id="SvgjsText1079" font-family="Helvetica, Arial, sans-serif" x="-55" y="-66.09375" class="markText"><tspan id="SvgjsTspan1080" dy="20.8" x="-55">10</tspan></text><text id="SvgjsText1081" font-family="Helvetica, Arial, sans-serif" x="55" y="-66.09375" class="markText"><tspan id="SvgjsTspan1082" dy="20.8" x="55">10</tspan></text><line id="SvgjsLine1083" x1="-15" y1="-25" x2="15" y2="-25"></line><line id="SvgjsLine1084" x1="-30" y1="0" x2="30" y2="0"></line><line id="SvgjsLine1085" x1="-15" y1="25" x2="15" y2="25"></line><line id="SvgjsLine1086" x1="-30" y1="50" x2="30" y2="50"></line><text id="SvgjsText1087" font-family="Helvetica, Arial, sans-serif" x="-55" y="33.90625" class="markText"><tspan id="SvgjsTspan1088" dy="20.8" x="-55">10</tspan></text><text id="SvgjsText1089" font-family="Helvetica, Arial, sans-serif" x="55" y="33.90625" class="markText"><tspan id="SvgjsTspan1090" dy="20.8" x="55">10</tspan></text><line id="SvgjsLine1091" x1="-15" y1="75" x2="15" y2="75"></line><line id="SvgjsLine1092" x1="-30" y1="100" x2="30" y2="100"></line><text id="SvgjsText1093" font-family="Helvetica, Arial, sans-serif" x="-55" y="83.90625" class="markText"><tspan id="SvgjsTspan1094" dy="20.8" x="-55">20</tspan></text><text id="SvgjsText1095" font-family="Helvetica, Arial, sans-serif" x="55" y="83.90625" class="markText"><tspan id="SvgjsTspan1096" dy="20.8" x="55">20</tspan></text><line id="SvgjsLine1097" x1="-15" y1="125" x2="15" y2="125"></line><line id="SvgjsLine1098" x1="-30" y1="150" x2="30" y2="150"></line><text id="SvgjsText1099" font-family="Helvetica, Arial, sans-serif" x="-55" y="133.90625" class="markText"><tspan id="SvgjsTspan1100" dy="20.8" x="-55">30</tspan></text><text id="SvgjsText1101" font-family="Helvetica, Arial, sans-serif" x="55" y="133.90625" class="markText"><tspan id="SvgjsTspan1102" dy="20.8" x="55">30</tspan></text><line id="SvgjsLine1103" x1="-15" y1="175" x2="15" y2="175"></line><line id="SvgjsLine1104" x1="-30" y1="200" x2="30" y2="200"></line><text id="SvgjsText1105" font-family="Helvetica, Arial, sans-serif" x="-55" y="183.90625" class="markText"><tspan id="SvgjsTspan1106" dy="20.8" x="-55">40</tspan></text><text id="SvgjsText1107" font-family="Helvetica, Arial, sans-serif" x="55" y="183.90625" class="markText"><tspan id="SvgjsTspan1108" dy="20.8" x="55">40</tspan></text><line id="SvgjsLine1109" x1="-15" y1="225" x2="15" y2="225"></line><line id="SvgjsLine1110" x1="-30" y1="250" x2="30" y2="250"></line><text id="SvgjsText1111" font-family="Helvetica, Arial, sans-serif" x="-55" y="233.90625" class="markText"><tspan id="SvgjsTspan1112" dy="20.8" x="-55">50</tspan></text><text id="SvgjsText1113" font-family="Helvetica, Arial, sans-serif" x="55" y="233.90625" class="markText"><tspan id="SvgjsTspan1114" dy="20.8" x="55">50</tspan></text><line id="SvgjsLine1115" x1="-15" y1="275" x2="15" y2="275"></line><line id="SvgjsLine1116" x1="-30" y1="300" x2="30" y2="300"></line><text id="SvgjsText1117" font-family="Helvetica, Arial, sans-serif" x="-55" y="283.90625" class="markText"><tspan id="SvgjsTspan1118" dy="20.8" x="-55">60</tspan></text><text id="SvgjsText1119" font-family="Helvetica, Arial, sans-serif" x="55" y="283.90625" class="markText"><tspan id="SvgjsTspan1120" dy="20.8" x="55">60</tspan></text><line id="SvgjsLine1121" x1="-15" y1="325" x2="15" y2="325"></line><line id="SvgjsLine1122" x1="-30" y1="350" x2="30" y2="350"></line><text id="SvgjsText1123" font-family="Helvetica, Arial, sans-serif" x="-55" y="333.90625" class="markText"><tspan id="SvgjsTspan1124" dy="20.8" x="-55">70</tspan></text><text id="SvgjsText1125" font-family="Helvetica, Arial, sans-serif" x="55" y="333.90625" class="markText"><tspan id="SvgjsTspan1126" dy="20.8" x="55">70</tspan></text><line id="SvgjsLine1127" x1="-15" y1="375" x2="15" y2="375"></line><line id="SvgjsLine1128" x1="-30" y1="400" x2="30" y2="400"></line><text id="SvgjsText1129" font-family="Helvetica, Arial, sans-serif" x="-55" y="383.90625" class="markText"><tspan id="SvgjsTspan1130" dy="20.8" x="-55">80</tspan></text><text id="SvgjsText1131" font-family="Helvetica, Arial, sans-serif" x="55" y="383.90625" class="markText"><tspan id="SvgjsTspan1132" dy="20.8" x="55">80</tspan></text><line id="SvgjsLine1133" x1="-15" y1="425" x2="15" y2="425"></line><line id="SvgjsLine1134" x1="-30" y1="450" x2="30" y2="450"></line><text id="SvgjsText1135" font-family="Helvetica, Arial, sans-serif" x="-55" y="433.90625" class="markText"><tspan id="SvgjsTspan1136" dy="20.8" x="-55">90</tspan></text><text id="SvgjsText1137" font-family="Helvetica, Arial, sans-serif" x="55" y="433.90625" class="markText"><tspan id="SvgjsTspan1138" dy="20.8" x="55">90</tspan></text><line id="SvgjsLine1139" x1="-15" y1="475" x2="15" y2="475"></line><line id="SvgjsLine1140" x1="-30" y1="500" x2="30" y2="500"></line><text id="SvgjsText1141" font-family="Helvetica, Arial, sans-serif" x="-55" y="483.90625" class="markText"><tspan id="SvgjsTspan1142" dy="20.8" x="-55">80</tspan></text><text id="SvgjsText1143" font-family="Helvetica, Arial, sans-serif" x="55" y="483.90625" class="markText"><tspan id="SvgjsTspan1144" dy="20.8" x="55">80</tspan></text><line id="SvgjsLine1145" x1="-15" y1="525" x2="15" y2="525"></line></g></g><g id="SvgjsG1146" class="marks" clip-path="url(&quot;#SvgjsClipPath1147&quot;)" transform="matrix(1,0,0,1,0,0)"><line id="SvgjsLine1148" x1="0" y1="-175" x2="0" y2="-195" transform="matrix(-1,-1.2246467991473532e-16,1.2246467991473532e-16,-1,0,0)"></line><line id="SvgjsLine1149" x1="0" y1="-175" x2="0" y2="-189" transform="matrix(-0.984807753012208,-0.17364817766693028,0.17364817766693028,-0.984807753012208,0,0)"></line><line id="SvgjsLine1150" x1="0" y1="-175" x2="0" y2="-189" transform="matrix(-0.9396926207859083,-0.3420201433256689,0.3420201433256689,-0.9396926207859083,0,0)"></line><line id="SvgjsLine1151" x1="0" y1="-175" x2="0" y2="-195" transform="matrix(-0.8660254037844387,-0.49999999999999994,0.49999999999999994,-0.8660254037844387,0,0)"></line><line id="SvgjsLine1152" x1="0" y1="-175" x2="0" y2="-189" transform="matrix(-0.7660444431189779,-0.6427876096865395,0.6427876096865395,-0.7660444431189779,0,0)"></line><line id="SvgjsLine1153" x1="0" y1="-175" x2="0" y2="-189" transform="matrix(-0.6427876096865394,-0.766044443118978,0.766044443118978,-0.6427876096865394,0,0)"></line><line id="SvgjsLine1154" x1="0" y1="-175" x2="0" y2="-195" transform="matrix(-0.4999999999999998,-0.8660254037844387,0.8660254037844387,-0.4999999999999998,0,0)"></line><line id="SvgjsLine1155" x1="0" y1="-175" x2="0" y2="-189" transform="matrix(-0.3420201433256687,-0.9396926207859084,0.9396926207859084,-0.3420201433256687,0,0)"></line><line id="SvgjsLine1156" x1="0" y1="-175" x2="0" y2="-189" transform="matrix(-0.1736481776669303,-0.984807753012208,0.984807753012208,-0.1736481776669303,0,0)"></line><line id="SvgjsLine1157" x1="0" y1="-175" x2="0" y2="-195" transform="matrix(6.123233995736766e-17,-1,1,6.123233995736766e-17,0,0)"></line><line id="SvgjsLine1158" x1="0" y1="-175" x2="0" y2="-189" transform="matrix(0.17364817766693041,-0.984807753012208,0.984807753012208,0.17364817766693041,0,0)"></line><line id="SvgjsLine1159" x1="0" y1="-175" x2="0" y2="-189" transform="matrix(0.3420201433256688,-0.9396926207859083,0.9396926207859083,0.3420201433256688,0,0)"></line><line id="SvgjsLine1160" x1="0" y1="-175" x2="0" y2="-195" transform="matrix(0.5000000000000001,-0.8660254037844386,0.8660254037844386,0.5000000000000001,0,0)"></line><line id="SvgjsLine1161" x1="0" y1="-175" x2="0" y2="-189" transform="matrix(0.6427876096865394,-0.766044443118978,0.766044443118978,0.6427876096865394,0,0)"></line><line id="SvgjsLine1162" x1="0" y1="-175" x2="0" y2="-189" transform="matrix(0.766044443118978,-0.6427876096865393,0.6427876096865393,0.766044443118978,0,0)"></line><line id="SvgjsLine1163" x1="0" y1="-175" x2="0" y2="-195" transform="matrix(0.8660254037844387,-0.49999999999999994,0.49999999999999994,0.8660254037844387,0,0)"></line><line id="SvgjsLine1164" x1="0" y1="-175" x2="0" y2="-189" transform="matrix(0.9396926207859084,-0.3420201433256687,0.3420201433256687,0.9396926207859084,0,0)"></line><line id="SvgjsLine1165" x1="0" y1="-175" x2="0" y2="-189" transform="matrix(0.984807753012208,-0.17364817766693033,0.17364817766693033,0.984807753012208,0,0)"></line><polygon id="SvgjsPolygon1166" points="-10,-189 0,-175 10,-189" style="stroke-width: 0;"></polygon><line id="SvgjsLine1167" x1="0" y1="-175" x2="0" y2="-189" transform="matrix(0.984807753012208,0.17364817766693033,-0.17364817766693033,0.984807753012208,0,0)"></line><line id="SvgjsLine1168" x1="0" y1="-175" x2="0" y2="-189" transform="matrix(0.9396926207859084,0.3420201433256687,-0.3420201433256687,0.9396926207859084,0,0)"></line><line id="SvgjsLine1169" x1="0" y1="-175" x2="0" y2="-195" transform="matrix(0.8660254037844387,0.49999999999999994,-0.49999999999999994,0.8660254037844387,0,0)"></line><line id="SvgjsLine1170" x1="0" y1="-175" x2="0" y2="-189" transform="matrix(0.766044443118978,0.6427876096865393,-0.6427876096865393,0.766044443118978,0,0)"></line><line id="SvgjsLine1171" x1="0" y1="-175" x2="0" y2="-189" transform="matrix(0.6427876096865394,0.766044443118978,-0.766044443118978,0.6427876096865394,0,0)"></line><line id="SvgjsLine1172" x1="0" y1="-175" x2="0" y2="-195" transform="matrix(0.5000000000000001,0.8660254037844386,-0.8660254037844386,0.5000000000000001,0,0)"></line><line id="SvgjsLine1173" x1="0" y1="-175" x2="0" y2="-189" transform="matrix(0.3420201433256688,0.9396926207859083,-0.9396926207859083,0.3420201433256688,0,0)"></line><line id="SvgjsLine1174" x1="0" y1="-175" x2="0" y2="-189" transform="matrix(0.17364817766693041,0.984807753012208,-0.984807753012208,0.17364817766693041,0,0)"></line><line id="SvgjsLine1175" x1="0" y1="-175" x2="0" y2="-195" transform="matrix(6.123233995736766e-17,1,-1,6.123233995736766e-17,0,0)"></line><line id="SvgjsLine1176" x1="0" y1="-175" x2="0" y2="-189" transform="matrix(-0.1736481776669303,0.984807753012208,-0.984807753012208,-0.1736481776669303,0,0)"></line><line id="SvgjsLine1177" x1="0" y1="-175" x2="0" y2="-189" transform="matrix(-0.3420201433256687,0.9396926207859084,-0.9396926207859084,-0.3420201433256687,0,0)"></line><line id="SvgjsLine1178" x1="0" y1="-175" x2="0" y2="-195" transform="matrix(-0.4999999999999998,0.8660254037844387,-0.8660254037844387,-0.4999999999999998,0,0)"></line><line id="SvgjsLine1179" x1="0" y1="-175" x2="0" y2="-189" transform="matrix(-0.6427876096865394,0.766044443118978,-0.766044443118978,-0.6427876096865394,0,0)"></line><line id="SvgjsLine1180" x1="0" y1="-175" x2="0" y2="-189" transform="matrix(-0.7660444431189779,0.6427876096865395,-0.6427876096865395,-0.7660444431189779,0,0)"></line><line id="SvgjsLine1181" x1="0" y1="-175" x2="0" y2="-195" transform="matrix(-0.8660254037844387,0.49999999999999994,-0.49999999999999994,-0.8660254037844387,0,0)"></line><line id="SvgjsLine1182" x1="0" y1="-175" x2="0" y2="-189" transform="matrix(-0.9396926207859083,0.3420201433256689,-0.3420201433256689,-0.9396926207859083,0,0)"></line><line id="SvgjsLine1183" x1="0" y1="-175" x2="0" y2="-189" transform="matrix(-0.984807753012208,0.17364817766693028,-0.17364817766693028,-0.984807753012208,0,0)"></line></g><g id="SvgjsG1184" class="marks"><polygon id="SvgjsPolygon1185" points="-10,-160 0,-174 10,-160" style="stroke-width: 0;"></polygon><polygon id="SvgjsPolygon1186" points="-10,160 0,174 10,160" style="stroke-width: 0;"></polygon></g><rect id="SvgjsRect1187" width="20" height="6" x="-10" y="-158" class="marks" style="stroke-width: 0;" transform="matrix(1,0,0,1,0,0)"></rect><g id="SvgjsG1188" class="pointer"><polygon id="SvgjsPolygon1189" points="-150,-3 -78,-3 -75,0 -78,3 -150,3"></polygon><polygon id="SvgjsPolygon1190" points="150,-3 78,-3 75,0 78,3 150,3"></polygon><polygon id="SvgjsPolygon1191" points="-75,25 0,0 75,25 25,25 25,20 -25,20 -25,25" class="pointerBG"></polygon><polygon id="SvgjsPolygon1192" points="-75,25 0,0 75,25 0,10"></polygon><line id="SvgjsLine1193" x1="0" y1="0" x2="0" y2="10"></line></g><g id="SvgjsG1194" class="marks" transform="matrix(1,0,0,1,0,0)"><line id="SvgjsLine1195" x1="-200" y1="175" x2="-200" y2="195" style="stroke-width: 1;"></line><line id="SvgjsLine1196" x1="-180" y1="175" x2="-180" y2="178"></line><text id="SvgjsText1197" font-family="Helvetica, Arial, sans-serif" x="-180" y="168.90625" class="markText"><tspan id="SvgjsTspan1198" dy="20.8" x="-180">270</tspan></text><line id="SvgjsLine1199" x1="-180" y1="192" x2="-180" y2="195"></line><line id="SvgjsLine1200" x1="-160" y1="175" x2="-160" y2="195" style="stroke-width: 1;"></line><line id="SvgjsLine1201" x1="-140" y1="175" x2="-140" y2="195" style="stroke-width: 1;"></line><line id="SvgjsLine1202" x1="-120" y1="175" x2="-120" y2="178"></line><text id="SvgjsText1203" font-family="Helvetica, Arial, sans-serif" x="-120" y="168.90625" class="markText"><tspan id="SvgjsTspan1204" dy="20.8" x="-120">300</tspan></text><line id="SvgjsLine1205" x1="-120" y1="192" x2="-120" y2="195"></line><line id="SvgjsLine1206" x1="-100" y1="175" x2="-100" y2="195" style="stroke-width: 1;"></line><line id="SvgjsLine1207" x1="-80" y1="175" x2="-80" y2="195" style="stroke-width: 1;"></line><line id="SvgjsLine1208" x1="-60" y1="175" x2="-60" y2="178"></line><text id="SvgjsText1209" font-family="Helvetica, Arial, sans-serif" x="-60" y="168.90625" class="markText"><tspan id="SvgjsTspan1210" dy="20.8" x="-60">330</tspan></text><line id="SvgjsLine1211" x1="-60" y1="192" x2="-60" y2="195"></line><line id="SvgjsLine1212" x1="-40" y1="175" x2="-40" y2="195" style="stroke-width: 1;"></line><line id="SvgjsLine1213" x1="-20" y1="175" x2="-20" y2="195" style="stroke-width: 1;"></line><line id="SvgjsLine1214" x1="0" y1="175" x2="0" y2="178"></line><text id="SvgjsText1215" font-family="Helvetica, Arial, sans-serif" x="0" y="168.90625" class="markText"><tspan id="SvgjsTspan1216" dy="20.8" x="0">0</tspan></text><line id="SvgjsLine1217" x1="0" y1="192" x2="0" y2="195"></line><line id="SvgjsLine1218" x1="20" y1="175" x2="20" y2="195" style="stroke-width: 1;"></line><line id="SvgjsLine1219" x1="40" y1="175" x2="40" y2="195" style="stroke-width: 1;"></line><line id="SvgjsLine1220" x1="60" y1="175" x2="60" y2="178"></line><text id="SvgjsText1221" font-family="Helvetica, Arial, sans-serif" x="60" y="168.90625" class="markText"><tspan id="SvgjsTspan1222" dy="20.8" x="60">30</tspan></text><line id="SvgjsLine1223" x1="60" y1="192" x2="60" y2="195"></line><line id="SvgjsLine1224" x1="80" y1="175" x2="80" y2="195" style="stroke-width: 1;"></line><line id="SvgjsLine1225" x1="100" y1="175" x2="100" y2="195" style="stroke-width: 1;"></line><line id="SvgjsLine1226" x1="120" y1="175" x2="120" y2="178"></line><text id="SvgjsText1227" font-family="Helvetica, Arial, sans-serif" x="120" y="168.90625" class="markText"><tspan id="SvgjsTspan1228" dy="20.8" x="120">60</tspan></text><line id="SvgjsLine1229" x1="120" y1="192" x2="120" y2="195"></line><line id="SvgjsLine1230" x1="140" y1="175" x2="140" y2="195" style="stroke-width: 1;"></line><line id="SvgjsLine1231" x1="160" y1="175" x2="160" y2="195" style="stroke-width: 1;"></line><line id="SvgjsLine1232" x1="180" y1="175" x2="180" y2="178"></line><text id="SvgjsText1233" font-family="Helvetica, Arial, sans-serif" x="180" y="168.90625" class="markText"><tspan id="SvgjsTspan1234" dy="20.8" x="180">90</tspan></text><line id="SvgjsLine1235" x1="180" y1="192" x2="180" y2="195"></line><line id="SvgjsLine1236" x1="200" y1="175" x2="200" y2="195" style="stroke-width: 1;"></line><line id="SvgjsLine1237" x1="220" y1="175" x2="220" y2="195" style="stroke-width: 1;"></line><line id="SvgjsLine1238" x1="240" y1="175" x2="240" y2="178"></line><text id="SvgjsText1239" font-family="Helvetica, Arial, sans-serif" x="240" y="168.90625" class="markText"><tspan id="SvgjsTspan1240" dy="20.8" x="240">120</tspan></text><line id="SvgjsLine1241" x1="240" y1="192" x2="240" y2="195"></line><line id="SvgjsLine1242" x1="260" y1="175" x2="260" y2="195" style="stroke-width: 1;"></line><line id="SvgjsLine1243" x1="280" y1="175" x2="280" y2="195" style="stroke-width: 1;"></line><line id="SvgjsLine1244" x1="300" y1="175" x2="300" y2="178"></line><text id="SvgjsText1245" font-family="Helvetica, Arial, sans-serif" x="300" y="168.90625" class="markText"><tspan id="SvgjsTspan1246" dy="20.8" x="300">150</tspan></text><line id="SvgjsLine1247" x1="300" y1="192" x2="300" y2="195"></line><line id="SvgjsLine1248" x1="320" y1="175" x2="320" y2="195" style="stroke-width: 1;"></line><line id="SvgjsLine1249" x1="340" y1="175" x2="340" y2="195" style="stroke-width: 1;"></line><line id="SvgjsLine1250" x1="360" y1="175" x2="360" y2="178"></line><text id="SvgjsText1251" font-family="Helvetica, Arial, sans-serif" x="360" y="168.90625" class="markText"><tspan id="SvgjsTspan1252" dy="20.8" x="360">180</tspan></text><line id="SvgjsLine1253" x1="360" y1="192" x2="360" y2="195"></line><line id="SvgjsLine1254" x1="380" y1="175" x2="380" y2="195" style="stroke-width: 1;"></line><line id="SvgjsLine1255" x1="400" y1="175" x2="400" y2="195" style="stroke-width: 1;"></line><line id="SvgjsLine1256" x1="420" y1="175" x2="420" y2="178"></line><text id="SvgjsText1257" font-family="Helvetica, Arial, sans-serif" x="420" y="168.90625" class="markText"><tspan id="SvgjsTspan1258" dy="20.8" x="420">210</tspan></text><line id="SvgjsLine1259" x1="420" y1="192" x2="420" y2="195"></line><line id="SvgjsLine1260" x1="440" y1="175" x2="440" y2="195" style="stroke-width: 1;"></line><line id="SvgjsLine1261" x1="460" y1="175" x2="460" y2="195" style="stroke-width: 1;"></line><line id="SvgjsLine1262" x1="480" y1="175" x2="480" y2="178"></line><text id="SvgjsText1263" font-family="Helvetica, Arial, sans-serif" x="480" y="168.90625" class="markText"><tspan id="SvgjsTspan1264" dy="20.8" x="480">240</tspan></text><line id="SvgjsLine1265" x1="480" y1="192" x2="480" y2="195"></line><line id="SvgjsLine1266" x1="500" y1="175" x2="500" y2="195" style="stroke-width: 1;"></line><line id="SvgjsLine1267" x1="520" y1="175" x2="520" y2="195" style="stroke-width: 1;"></line><line id="SvgjsLine1268" x1="540" y1="175" x2="540" y2="178"></line><text id="SvgjsText1269" font-family="Helvetica, Arial, sans-serif" x="540" y="168.90625" class="markText"><tspan id="SvgjsTspan1270" dy="20.8" x="540">270</tspan></text><line id="SvgjsLine1271" x1="540" y1="192" x2="540" y2="195"></line><line id="SvgjsLine1272" x1="560" y1="175" x2="560" y2="195" style="stroke-width: 1;"></line><line id="SvgjsLine1273" x1="580" y1="175" x2="580" y2="195" style="stroke-width: 1;"></line><line id="SvgjsLine1274" x1="600" y1="175" x2="600" y2="178"></line><text id="SvgjsText1275" font-family="Helvetica, Arial, sans-serif" x="600" y="168.90625" class="markText"><tspan id="SvgjsTspan1276" dy="20.8" x="600">300</tspan></text><line id="SvgjsLine1277" x1="600" y1="192" x2="600" y2="195"></line><line id="SvgjsLine1278" x1="620" y1="175" x2="620" y2="195" style="stroke-width: 1;"></line><line id="SvgjsLine1279" x1="640" y1="175" x2="640" y2="195" style="stroke-width: 1;"></line><line id="SvgjsLine1280" x1="660" y1="175" x2="660" y2="178"></line><text id="SvgjsText1281" font-family="Helvetica, Arial, sans-serif" x="660" y="168.90625" class="markText"><tspan id="SvgjsTspan1282" dy="20.8" x="660">330</tspan></text><line id="SvgjsLine1283" x1="660" y1="192" x2="660" y2="195"></line><line id="SvgjsLine1284" x1="680" y1="175" x2="680" y2="195" style="stroke-width: 1;"></line><line id="SvgjsLine1285" x1="700" y1="175" x2="700" y2="195" style="stroke-width: 1;"></line><line id="SvgjsLine1286" x1="720" y1="175" x2="720" y2="178"></line><text id="SvgjsText1287" font-family="Helvetica, Arial, sans-serif" x="720" y="168.90625" class="markText"><tspan id="SvgjsTspan1288" dy="20.8" x="720">0</tspan></text><line id="SvgjsLine1289" x1="720" y1="192" x2="720" y2="195"></line><line id="SvgjsLine1290" x1="740" y1="175" x2="740" y2="195" style="stroke-width: 1;"></line><line id="SvgjsLine1291" x1="760" y1="175" x2="760" y2="195" style="stroke-width: 1;"></line><line id="SvgjsLine1292" x1="780" y1="175" x2="780" y2="178"></line><text id="SvgjsText1293" font-family="Helvetica, Arial, sans-serif" x="780" y="168.90625" class="markText"><tspan id="SvgjsTspan1294" dy="20.8" x="780">30</tspan></text><line id="SvgjsLine1295" x1="780" y1="192" x2="780" y2="195"></line><line id="SvgjsLine1296" x1="800" y1="175" x2="800" y2="195" style="stroke-width: 1;"></line><line id="SvgjsLine1297" x1="820" y1="175" x2="820" y2="195" style="stroke-width: 1;"></line><line id="SvgjsLine1298" x1="840" y1="175" x2="840" y2="178"></line><text id="SvgjsText1299" font-family="Helvetica, Arial, sans-serif" x="840" y="168.90625" class="markText"><tspan id="SvgjsTspan1300" dy="20.8" x="840">60</tspan></text><line id="SvgjsLine1301" x1="840" y1="192" x2="840" y2="195"></line><line id="SvgjsLine1302" x1="860" y1="175" x2="860" y2="195" style="stroke-width: 1;"></line><line id="SvgjsLine1303" x1="880" y1="175" x2="880" y2="195" style="stroke-width: 1;"></line><line id="SvgjsLine1304" x1="900" y1="175" x2="900" y2="178"></line><text id="SvgjsText1305" font-family="Helvetica, Arial, sans-serif" x="900" y="168.90625" class="markText"><tspan id="SvgjsTspan1306" dy="20.8" x="900">90</tspan></text><line id="SvgjsLine1307" x1="900" y1="192" x2="900" y2="195"></line><line id="SvgjsLine1308" x1="920" y1="175" x2="920" y2="195" style="stroke-width: 1;"></line></g></g></g><g id="SvgjsG1309" class="error"><g id="SvgjsG1310" style="display: none;"><rect id="SvgjsRect1311" width="400" height="400" x="-200" y="-200"></rect><line id="SvgjsLine1312" x1="-200" y1="-200" x2="200" y2="200"></line><line id="SvgjsLine1313" x1="-200" y1="200" x2="200" y2="-200"></line></g></g><g id="SvgjsG1314" transform="matrix(1,0,0,1,0,-85)" style="display: none;"><rect id="SvgjsRect1317" width="0" height="0" stroke="#000000" stroke-width="1"></rect><text id="SvgjsText1315" font-family="Helvetica, Arial, sans-serif" class="msgText"></text></g></g></svg>
